<svg width="440" height="440" viewBox="0 0 440 440" fill="none" xmlns="http://www.w3.org/2000/svg">
<path d="M220.102 111.891L282.717 75.74L282.717 148.042L220.102 111.891Z" fill="#666666"/>
<path d="M345.332 111.891L282.717 148.042L282.717 75.74L345.332 111.891Z" fill="#666666"/>
<path d="M157.487 148.038L220.102 111.887L220.102 184.189L157.487 148.038Z" fill="#84B477"/>
<path d="M282.717 148.038L220.102 184.189L220.102 111.887L282.717 148.038Z" fill="black"/>
<path d="M345.332 184.186L282.717 220.336L282.717 148.035L345.332 184.186Z" fill="#999999"/>
<path d="M220.102 184.186L157.487 220.336L157.487 148.035L220.102 184.186Z" fill="#84B477"/>
<path d="M94.8717 184.186L157.487 148.035L157.487 220.337L94.8717 184.186Z" fill="#84B477"/>
<path d="M220.102 184.186L282.717 148.035L282.717 220.337L220.102 184.186Z" fill="#999999"/>
<path d="M157.487 220.333L94.8717 256.484L94.8717 184.182L157.487 220.333Z" fill="#BBDBB3"/>
<path d="M94.8717 184.034L157.487 147.883L157.487 220.185L94.8717 184.034Z" fill="#84B477"/>
<path d="M220.102 256.48L157.487 292.631L157.487 220.329L220.102 256.48Z" fill="#568B48"/>
<path d="M345.332 256.48L282.717 292.631L282.717 220.329L345.332 256.48Z" fill="#999999"/>
<path d="M94.8717 256.48L157.487 220.33L157.487 292.631L94.8717 256.48Z" fill="#568B48"/>
<path d="M220.102 256.48L282.717 220.33L282.717 292.631L220.102 256.48Z" fill="#999999"/>
<path d="M282.717 292.628L220.102 328.779L220.102 256.477L282.717 292.628Z" fill="black"/>
<path d="M157.487 364.917L94.8717 401.068L94.8717 328.766L157.487 364.917Z" fill="#84B477"/>
<path d="M282.717 364.917L345.332 328.766L345.332 401.068L282.717 364.917Z" fill="#666666"/>
<path d="M157.487 292.628L220.102 256.477L220.102 328.779L157.487 292.628Z" fill="#BBDBB3"/>
<path d="M220.102 328.775L157.487 364.926L157.487 292.624L220.102 328.775Z" fill="#84B477"/>
<path d="M345.332 328.775L282.717 364.926L282.717 292.624L345.332 328.775Z" fill="#666666"/>
<path d="M220.102 328.775L282.717 292.624L282.717 364.926L220.102 328.775Z" fill="#666666"/>
<path d="M94.8717 328.775L157.487 292.624L157.487 364.926L94.8717 328.775Z" fill="#84B477"/>
<path d="M282.717 220.333L345.332 184.182L345.332 256.484L282.717 220.333Z" fill="black"/>
<path d="M282.717 75.7434L345.332 39.5926L345.332 111.894L282.717 75.7434Z" fill="#666666"/>
</svg>
